<?xml version="1.0" encoding="utf-8"?>
<!-- Generator: Adobe Illustrator 16.0.3, SVG Export Plug-In . SVG Version: 6.00 Build 0)  -->
<!DOCTYPE svg PUBLIC "-//W3C//DTD SVG 1.1//EN" "http://www.w3.org/Graphics/SVG/1.1/DTD/svg11.dtd">
<svg version="1.1" id="Шар_1" xmlns="http://www.w3.org/2000/svg" xmlns:xlink="http://www.w3.org/1999/xlink" x="0px" y="0px"
	 width="80px" height="160px" viewBox="0 0 80 160" enable-background="new 0 0 80 160" xml:space="preserve">
<g>
	<path fill="#FFFFFF" d="M56.314,20.249c-7.088,7.083-14.197,14.194-21.27,21.265c2.15,2.155,4.332,4.338,6.468,6.483
		c7.088-7.09,14.196-14.197,21.275-21.276C60.65,24.583,58.476,22.411,56.314,20.249 M39.546,49.824
		c-2.102-2.108-4.242-4.252-6.32-6.333v6.333H39.546z"/>
	<path fill="#FFFFFF" d="M69.769,45.799c-0.06-0.041-0.118-0.077-0.169-0.126l-7.48-7.478c-0.104-0.103-0.214-0.199-0.296-0.274
		l-0.47-0.429l-9.723,9.724h6.875c-1.287,7.017-7.705,14.514-17.568,15.134c-9.502,0.603-17.992-5.983-19.869-15.213
		c-1.208-5.921,0.101-11.287,3.884-15.953c3.697-4.562,8.689-6.957,14.837-7.122l0.646-0.015v-3.875l-0.056-0.478l-0.603-0.221
		L39.4,19.464l-0.185,0.002c-4.604,0.133-8.803,1.452-12.477,3.914c-5.561,3.725-9.026,8.938-10.3,15.499
		c-0.126,0.652-0.212,1.317-0.293,1.956c-0.039,0.287-0.077,0.579-0.118,0.866l-0.006,2.983l0.049,0.305
		c0.017,0.079,0.037,0.157,0.041,0.24c0.166,2.168,0.635,4.287,1.403,6.3c3.579,9.415,12.245,15.501,22.076,15.501
		c1.615,0,3.242-0.169,4.845-0.502c9.133-1.898,15.254-7.497,18.188-16.646c0.229-0.716,0.388-1.458,0.545-2.174
		c0.034-0.165,0.07-0.333,0.107-0.502h6.916v-1.1L69.769,45.799z"/>
	<path fill="#FFFFFF" d="M56.314,20.247c2.161,2.164,4.336,4.336,6.476,6.475C55.709,33.8,48.601,40.907,41.513,47.997
		c-2.136-2.143-4.317-4.328-6.468-6.483C42.119,34.441,49.227,27.334,56.314,20.247"/>
	<path fill="#FFFFFF" d="M39.548,49.824h-6.322v-6.333C35.304,45.574,37.442,47.716,39.548,49.824"/>
</g>
<path fill="#FFFFFF" d="M69.769,125.799c-0.06-0.039-0.118-0.077-0.169-0.125l-7.48-7.479c-0.104-0.103-0.214-0.197-0.296-0.274
	l-0.47-0.43l-9.723,9.725h6.875c-1.287,7.016-7.705,14.514-17.568,15.135c-9.502,0.602-17.992-5.982-19.869-15.213
	c-1.208-5.923,0.101-11.289,3.884-15.955c3.697-4.559,8.689-6.957,14.837-7.119l0.646-0.018v-3.874l-0.056-0.479l-0.603-0.221
	L39.4,99.465l-0.185,0.002c-4.604,0.133-8.803,1.452-12.477,3.913c-5.561,3.728-9.026,8.938-10.3,15.501
	c-0.126,0.652-0.212,1.316-0.293,1.955c-0.039,0.288-0.077,0.58-0.118,0.867l-0.006,2.98l0.049,0.305
	c0.017,0.082,0.037,0.158,0.041,0.24c0.166,2.17,0.635,4.289,1.403,6.301c3.579,9.414,12.245,15.5,22.076,15.5
	c1.615,0,3.242-0.167,4.845-0.502c9.133-1.895,15.254-7.496,18.188-16.646c0.229-0.716,0.388-1.458,0.545-2.175
	c0.034-0.162,0.07-0.33,0.107-0.502h6.916v-1.098L69.769,125.799z"/>
<polygon fill="#FFFFFF" points="39.304,133.957 17.638,101.699 24.929,96.802 39.646,118.713 66.794,82 73.858,87.223 "/>
</svg>
