<?xml version="1.0" encoding="utf-8"?>
<!-- Generator: Adobe Illustrator 16.0.3, SVG Export Plug-In . SVG Version: 6.00 Build 0)  -->
<!DOCTYPE svg PUBLIC "-//W3C//DTD SVG 1.1//EN" "http://www.w3.org/Graphics/SVG/1.1/DTD/svg11.dtd">
<svg version="1.1" id="Шар_1" xmlns="http://www.w3.org/2000/svg" xmlns:xlink="http://www.w3.org/1999/xlink" x="0px" y="0px"
	 width="80px" height="160px" viewBox="0 0 80 160" enable-background="new 0 0 80 160" xml:space="preserve">
<g>
	<path fill="#FFFFFF" d="M48.547,65.54v2.189c0,1.744-1.281,3.197-2.943,3.442l-0.543,1.992C44.77,74.244,43.796,75,42.673,75
		h-5.356c-1.127,0-2.098-0.756-2.392-1.836l-0.529-1.992c-1.68-0.262-2.958-1.699-2.958-3.455v-2.192
		c0-1.175,0.939-2.114,2.114-2.114h12.885C47.608,63.428,48.547,64.366,48.547,65.54"/>
	<path fill="#FFFFFF" d="M39.877,17.53c-10.279,0.078-18.46,8.394-18.346,18.671c0.045,4.893,2.002,9.335,5.151,12.609
		c2.437,2.518,4.027,5.788,4.569,9.229c0.214,1.48,1.507,2.563,3.008,2.563h11.468c1.51,0,2.792-1.095,3.022-2.575
		c0.523-3.444,2.102-6.667,4.535-9.2c3.213-3.318,5.186-7.841,5.186-12.825C58.472,25.754,50.138,17.455,39.877,17.53z
		 M39.999,26.895c-5.046,0-9.168,4.108-9.168,9.169c0,1.158-0.938,2.083-2.082,2.083c-1.156,0-2.083-0.942-2.083-2.083
		c0-7.361,5.987-13.333,13.333-13.333c1.159,0,2.081,0.939,2.081,2.084C42.08,25.973,41.158,26.895,39.999,26.895z"/>
	<path fill="#FFFFFF" d="M39.999,11.464c1.14,0,2.081-0.926,2.081-2.083V2.083C42.08,0.942,41.158,0,39.999,0
		S37.92,0.924,37.92,2.083V9.38C37.92,10.538,38.859,11.464,39.999,11.464"/>
	<path fill="#FFFFFF" d="M15.477,35.986c0-1.142-0.926-2.084-2.082-2.084h-7.3c-1.143,0-2.082,0.926-2.082,2.084
		c0,1.145,0.926,2.087,2.082,2.087h7.3C14.551,38.073,15.477,37.143,15.477,35.986"/>
	<path fill="#FFFFFF" d="M73.902,33.902h-7.298c-1.139,0-2.08,0.926-2.08,2.084c0,1.145,0.922,2.087,2.08,2.087h7.298
		c1.143,0,2.084-0.93,2.084-2.087C75.986,34.844,75.063,33.902,73.902,33.902"/>
	<path fill="#FFFFFF" d="M19.724,53.334l-5.173,5.168c-0.817,0.817-0.817,2.133,0,2.947c0.402,0.402,0.942,0.602,1.466,0.602
		c0.527,0,1.07-0.2,1.465-0.602l5.173-5.17c0.818-0.817,0.818-2.128,0-2.945C21.851,52.513,20.526,52.513,19.724,53.334"/>
	<path fill="#FFFFFF" d="M58.812,19.259c0.526,0,1.064-0.203,1.469-0.601l5.166-5.173c0.817-0.814,0.817-2.13,0-2.948
		c-0.816-0.818-2.128-0.818-2.948,0l-5.168,5.17c-0.819,0.817-0.819,2.13,0,2.951C57.748,19.056,58.273,19.259,58.812,19.259"/>
	<path fill="#FFFFFF" d="M19.724,18.638c0.399,0.405,0.942,0.604,1.466,0.604c0.521,0,1.063-0.199,1.466-0.604
		c0.818-0.815,0.818-2.125,0-2.946l-5.173-5.17c-0.817-0.817-2.126-0.817-2.948,0c-0.816,0.821-0.816,2.128,0,2.951L19.724,18.638z"
		/>
	<path fill="#FFFFFF" d="M60.28,53.334c-0.819-0.821-2.132-0.821-2.95,0c-0.819,0.817-0.819,2.128,0,2.945l5.168,5.17
		c0.402,0.402,0.943,0.602,1.469,0.602c0.521,0,1.065-0.2,1.468-0.602c0.816-0.814,0.816-2.13,0-2.947L60.28,53.334z"/>
</g>
<g>
	<path fill="#FFFFFF" d="M15.479,115.984c0-1.138-0.926-2.083-2.08-2.083H6.096c-1.14,0-2.085,0.926-2.085,2.083
		c0,1.148,0.926,2.087,2.085,2.087h7.303C14.552,118.071,15.479,117.146,15.479,115.984z"/>
	<path fill="#FFFFFF" d="M40,91.465c1.141,0,2.083-0.927,2.083-2.082v-7.301C42.082,80.939,41.162,80,40,80
		c-1.155,0-2.082,0.927-2.082,2.082v7.301C37.918,90.538,38.857,91.465,40,91.465z"/>
	<path fill="#FFFFFF" d="M58.813,99.257c0.527,0,1.063-0.198,1.466-0.601l5.173-5.174c0.817-0.811,0.817-2.126,0-2.944
		c-0.817-0.816-2.13-0.816-2.95,0l-5.17,5.168c-0.818,0.816-0.818,2.133,0,2.95C57.749,99.059,58.275,99.257,58.813,99.257z"/>
	<path fill="#FFFFFF" d="M19.726,98.638c0.399,0.408,0.942,0.606,1.466,0.606c0.523,0,1.06-0.198,1.462-0.606
		c0.817-0.812,0.817-2.127,0-2.945l-5.167-5.173c-0.817-0.817-2.13-0.817-2.951,0c-0.818,0.823-0.818,2.134,0,2.951L19.726,98.638z"
		/>
	<path fill="#FFFFFF" d="M19.726,133.336l-5.173,5.168c-0.817,0.816-0.817,2.132,0,2.944c0.402,0.401,0.942,0.606,1.466,0.606
		s1.066-0.205,1.469-0.606l5.167-5.168c0.817-0.816,0.817-2.126,0-2.944C21.849,132.513,20.527,132.513,19.726,133.336z"/>
	<path fill="#FFFFFF" d="M73.907,113.901h-7.3c-1.14,0-2.082,0.926-2.082,2.083c0,1.148,0.926,2.087,2.082,2.087h7.3
		c1.14,0,2.082-0.925,2.082-2.087C75.989,114.847,75.063,113.901,73.907,113.901z"/>
	<path fill="#FFFFFF" d="M60.278,133.336c-0.817-0.823-2.127-0.823-2.947,0c-0.818,0.818-0.818,2.128,0,2.944l5.17,5.168
		c0.402,0.401,0.942,0.606,1.469,0.606c0.524,0,1.061-0.205,1.463-0.606c0.816-0.813,0.816-2.128,0-2.944L60.278,133.336z"/>
	<path fill="#FFFFFF" d="M46.438,143.408H33.549c-1.171,0-2.11,0.939-2.11,2.114v2.196c0,1.757,1.281,3.193,2.96,3.45l0.524,1.992
		C35.22,154.246,36.19,155,37.318,155h5.352c1.125,0,2.101-0.754,2.392-1.839l0.543-1.992c1.664-0.243,2.948-1.693,2.948-3.438
		v-2.19C48.553,144.366,47.607,143.427,46.438,143.408z"/>
	<path fill="#FFFFFF" d="M39.879,97.532c-10.276,0.076-18.458,8.393-18.349,18.669c0.044,4.892,2.006,9.337,5.154,12.607
		c2.437,2.522,4.023,5.792,4.566,9.229c0.217,1.481,1.513,2.567,3.007,2.567h11.472c1.51,0,2.791-1.099,3.023-2.58
		c0.524-3.442,2.099-6.669,4.538-9.197c3.21-3.32,5.186-7.842,5.186-12.824C58.477,105.752,50.14,97.456,39.879,97.532z
		 M33.301,109.642c1.669,0,3.024,1.354,3.024,3.027c0,1.674-1.355,3.026-3.024,3.026c-1.673,0-3.028-1.353-3.028-3.026
		C30.273,110.996,31.627,109.642,33.301,109.642z M49.518,124.689c-5.206,5.204-13.663,5.191-18.855,0
		c-0.824-0.818-0.811-2.134,0-2.945c0.818-0.818,2.121-0.818,2.944,0c3.564,3.571,9.385,3.576,12.965,0
		c0.818-0.818,2.14-0.811,2.945,0C50.335,122.563,50.325,123.884,49.518,124.689z M49.511,114.01h-5.189
		c-1.077,0-1.946-0.868-1.946-1.941c0-1.072,0.869-1.947,1.946-1.947h5.189c1.072,0,1.944,0.875,1.944,1.947
		C51.455,113.142,50.583,114.01,49.511,114.01z"/>
</g>
</svg>
