<?xml version="1.0" encoding="utf-8"?>
<!-- Generator: Adobe Illustrator 16.0.3, SVG Export Plug-In . SVG Version: 6.00 Build 0)  -->
<!DOCTYPE svg PUBLIC "-//W3C//DTD SVG 1.1//EN" "http://www.w3.org/Graphics/SVG/1.1/DTD/svg11.dtd">
<svg version="1.1" id="Шар_1" xmlns="http://www.w3.org/2000/svg" xmlns:xlink="http://www.w3.org/1999/xlink" x="0px" y="0px"
	 width="80px" height="160px" viewBox="0 0 80 160" enable-background="new 0 0 80 160" xml:space="preserve">
<g>
	<path fill="#FFFFFF" d="M73.078,60.795l-16.06-16.056c-2.393,3.721-5.56,6.888-9.278,9.277L63.8,70.076
		c2.563,2.566,6.72,2.566,9.278,0C75.641,67.518,75.641,63.36,73.078,60.795"/>
	<path fill="#FFFFFF" d="M57.503,28.25C57.503,13.751,45.746,2,31.251,2C16.753,2,5,13.751,5,28.25
		c0,14.495,11.753,26.248,26.251,26.248C45.746,54.499,57.503,42.745,57.503,28.25 M31.251,47.939
		c-10.86,0-19.688-8.829-19.688-19.688c0-10.857,8.829-19.688,19.688-19.688c10.856,0,19.685,8.831,19.685,19.688
		C50.937,39.11,42.107,47.939,31.251,47.939"/>
	<path fill="#FFFFFF" d="M15.939,28.25h4.373c0-6.029,4.908-10.937,10.939-10.937v-4.375C22.808,12.938,15.939,19.809,15.939,28.25"
		/>
</g>
<g>
	<path fill="#FFFFFF" d="M73.078,140.795l-16.06-16.055c-2.393,3.721-5.56,6.888-9.278,9.276l16.06,16.059
		c2.563,2.566,6.72,2.566,9.278,0C75.641,147.518,75.641,143.36,73.078,140.795"/>
	<path fill="#FFFFFF" d="M57.503,108.25C57.503,93.749,45.746,82,31.251,82C16.753,82,5,93.749,5,108.25
		c0,14.495,11.753,26.249,26.251,26.249C45.746,134.499,57.503,122.745,57.503,108.25 M31.251,127.939
		c-10.86,0-19.688-8.829-19.688-19.689c0-10.858,8.829-19.688,19.688-19.688c10.856,0,19.685,8.829,19.685,19.688
		C50.937,119.11,42.107,127.939,31.251,127.939"/>
	<path fill="#FFFFFF" d="M41.795,119.31l-3.092-3.09c-4.263,4.26-11.206,4.26-15.471-0.004l-3.093,3.094
		C26.111,125.277,35.826,125.277,41.795,119.31"/>
</g>
</svg>
