<?xml version="1.0" encoding="utf-8"?>
<!-- Generator: Adobe Illustrator 16.0.3, SVG Export Plug-In . SVG Version: 6.00 Build 0)  -->
<!DOCTYPE svg PUBLIC "-//W3C//DTD SVG 1.1//EN" "http://www.w3.org/Graphics/SVG/1.1/DTD/svg11.dtd">
<svg version="1.1" id="Шар_1" xmlns="http://www.w3.org/2000/svg" xmlns:xlink="http://www.w3.org/1999/xlink" x="0px" y="0px"
	 width="80px" height="160px" viewBox="0 0 80 160" enable-background="new 0 0 80 160" xml:space="preserve">
<g>
	<path fill="#FFFFFF" d="M75.376,61.209c-2.49-3.717-6.278-8.181-10.661-12.568c-2.408-2.41-4.938-4.727-7.311-6.698
		c-0.271-0.225-0.643-0.307-0.989-0.215c-0.344,0.091-0.625,0.343-0.748,0.681c-0.369,1-0.977,1.921-1.792,2.74
		c-0.679,0.675-1.379,1.208-2.086,1.584c-0.296,0.151-0.501,0.432-0.568,0.761c-0.067,0.326,0.021,0.667,0.236,0.919
		c1.911,2.287,4.143,4.719,6.459,7.031C65.886,63.428,73.633,69,76.748,69c0.479,0,0.853-0.137,1.112-0.395
		C79.085,67.381,77.188,63.905,75.376,61.209"/>
	<path fill="#FFFFFF" d="M43.095,38.451c0.195,1.246,0.419,2.658,1.141,4.216c0.983,2.114,2.644,3.377,4.44,3.377
		c1.36,0,2.728-0.681,4.068-2.023c1.897-1.899,2.471-4.39,1.529-6.663c-1.251-3.014-4.811-4.966-9.076-4.966
		c-0.94,0-1.92,0.091-2.916,0.266c-0.39,0.072-0.71,0.346-0.844,0.72c-0.133,0.373-0.053,0.79,0.205,1.092
		C42.652,35.635,42.855,36.936,43.095,38.451"/>
	<path fill="#FFFFFF" d="M71.634,2H2.849C2.242,2,1.75,2.497,1.75,3.106v46.741c0,0.606,0.492,1.1,1.099,1.1h47.175l-2.255-2.893
		c-4.563,0-5.917-4.398-6.318-4.398H9.037V9.297h56.408v34.359h-2.583l7.02,7.291h1.752c0.609,0,1.107-0.494,1.107-1.1V3.106
		C72.741,2.497,72.243,2,71.634,2"/>
	<path fill="#FFFFFF" d="M39.838,31.056c0.208,0.192,0.476,0.296,0.751,0.296c0.102,0,0.206-0.014,0.305-0.044
		c0.697-0.197,1.719-0.488,2.652-0.735c0.229-0.061,0.432-0.192,0.578-0.376c0.256-0.315,0.559-0.65,0.776-0.897
		c1.101-1.219,2.606-2.894,1.943-4.878c-0.34-0.997-1.021-1.732-1.967-2.128c-0.5-0.211-1.043-0.31-1.661-0.31
		c-2.131,0-4.818,1.293-7.663,2.661c-1.271,0.609-3.297,1.581-4.474,1.924c0.28-0.705,0.828-1.688,1.217-2.38
		c0.67-1.202,1.366-2.449,1.726-3.662c0.778-2.643-0.434-4.061-1.231-4.678c-0.003,0-0.017-0.011-0.017-0.011
		c-0.718-0.538-1.517-0.812-2.373-0.812c-2.458,0-4.933,2.177-6.918,3.928c-0.814,0.717-1.445,1.26-1.893,1.579
		c-0.354,0.252-0.52,0.697-0.431,1.123l0.442,2.116c0.074,0.34,0.3,0.626,0.612,0.772c0.31,0.148,0.674,0.14,0.981-0.025
		c0.952-0.499,1.945-1.37,3.088-2.376c0.939-0.829,1.913-1.684,2.801-2.266c0.378-0.247,0.656-0.392,0.858-0.475
		c-0.254,0.758-0.94,1.993-1.347,2.712c-0.684,1.225-1.388,2.487-1.72,3.695c-0.784,2.855,0.873,4.195,1.614,4.632
		c0.548,0.329,1.166,0.492,1.884,0.492c1.893,0,4.266-1.142,7.011-2.459c1.372-0.665,2.785-1.343,3.977-1.782
		c0.094-0.034,0.185-0.063,0.27-0.096c-0.839,0.933-1.83,2.083-2.118,3.425C39.431,30.399,39.555,30.792,39.838,31.056"/>
</g>
<g>
	<path fill="#FFFFFF" d="M75.377,141.204c-2.491-3.717-6.279-8.176-10.664-12.562c-2.407-2.411-4.937-4.729-7.309-6.699
		c-0.273-0.225-0.642-0.309-0.99-0.214c-0.345,0.087-0.624,0.34-0.747,0.681c-0.369,0.993-0.977,1.916-1.794,2.74
		c-0.678,0.675-1.377,1.207-2.083,1.58c-0.298,0.154-0.504,0.434-0.569,0.765c-0.068,0.323,0.02,0.664,0.236,0.916
		c1.911,2.284,4.143,4.722,6.457,7.032C65.885,143.428,73.633,149,76.748,149c0.479,0,0.853-0.138,1.113-0.396
		C79.085,147.38,77.187,143.904,75.377,141.204"/>
	<path fill="#FFFFFF" d="M71.635,82H2.848c-0.607,0-1.099,0.494-1.099,1.104v46.74c0,0.609,0.492,1.104,1.099,1.104h47.173
		l-2.254-2.894c-4.563,0-5.917-4.402-6.317-4.402H9.037V89.298h56.411v34.354H62.86l7.021,7.296h1.753
		c0.608,0,1.106-0.494,1.106-1.104v-46.74C72.741,82.494,72.243,82,71.635,82"/>
	<path fill="#FFFFFF" d="M61.799,105.896c-3.266-3.454-12.141-11.493-23.982-11.493c-11.845,0-20.715,8.039-23.979,11.493
		c-0.622,0.658-0.622,1.684,0,2.343c3.264,3.453,12.134,11.487,23.979,11.487c1.381,0,2.717-0.115,4.013-0.319
		c-0.043-0.246-0.084-0.493-0.121-0.719c-0.168-1.076-0.303-1.917-0.674-2.63c-1.048,0.147-2.113,0.253-3.218,0.253
		c-1.512,0-2.972-0.149-4.373-0.412c-3.063-1.675-4.959-4.975-4.959-8.647c0-4.2,2.492-7.891,6.211-9.219
		c1.013-0.137,2.053-0.215,3.121-0.215c0.796,0,1.578,0.045,2.346,0.127c3.826,1.219,6.492,5.029,6.492,9.307
		c0,1.328-0.268,2.613-0.742,3.799c1.195,0.071,2.335,0.281,3.392,0.609c0.478-1.398,0.761-2.877,0.761-4.408
		c0-2.57-0.697-5.023-2.018-7.149c4.464,1.994,7.963,4.887,10.113,6.963c-1.619,1.564-4.021,3.586-7.008,5.342
		c1.147,0.576,2.162,1.307,2.957,2.191c3.552-2.28,6.202-4.793,7.689-6.359C62.418,107.579,62.418,106.554,61.799,105.896z
		 M26.614,113.575c-3.999-1.959-7.149-4.584-9.14-6.511c2.036-1.966,5.287-4.674,9.42-6.644c-1.162,2.01-1.818,4.354-1.818,6.83
		C25.076,109.519,25.624,111.682,26.614,113.575z"/>
	<path fill="#FFFFFF" d="M48.33,113.9"/>
	<path fill="#FFFFFF" d="M41.892,107.251c-2.383,0-4.321-1.933-4.321-4.321c-2.387,0-4.324,1.938-4.324,4.321
		c0,2.384,1.937,4.321,4.324,4.321C39.957,111.572,41.892,109.635,41.892,107.251L41.892,107.251z M41.892,107.251"/>
	<path fill="#FFFFFF" d="M43.094,118.451c0.196,1.246,0.419,2.658,1.142,4.211c0.983,2.114,2.644,3.377,4.439,3.377
		c1.36,0,2.728-0.675,4.068-2.021c1.898-1.899,2.471-4.393,1.53-6.66c-1.251-3.02-4.811-4.969-9.076-4.969
		c-0.94,0-1.921,0.088-2.916,0.27c-0.39,0.065-0.71,0.345-0.845,0.719c-0.133,0.373-0.052,0.791,0.205,1.087
		C42.652,115.629,42.854,116.937,43.094,118.451"/>
</g>
</svg>
