<?xml version="1.0" encoding="utf-8"?>
<!-- Generator: Adobe Illustrator 16.0.3, SVG Export Plug-In . SVG Version: 6.00 Build 0)  -->
<!DOCTYPE svg PUBLIC "-//W3C//DTD SVG 1.1//EN" "http://www.w3.org/Graphics/SVG/1.1/DTD/svg11.dtd">
<svg version="1.1" id="Шар_1" xmlns="http://www.w3.org/2000/svg" xmlns:xlink="http://www.w3.org/1999/xlink" x="0px" y="0px"
	 width="80px" height="160px" viewBox="0 0 80 160" enable-background="new 0 0 80 160" xml:space="preserve">
<g>
	<path fill="#FFFFFF" d="M66.645,43.067c0-4.254-0.99-8.27-2.759-11.841l-4.779,2.754c1.305,2.76,2.033,5.835,2.033,9.086
		c0,4.021-1.113,7.776-3.042,10.988l4.764,2.744C65.263,52.786,66.645,48.091,66.645,43.067"/>
	<path fill="#FFFFFF" d="M21.186,32.744c3.535-6.363,10.215-10.723,17.947-10.967V16.27c-9.77,0.247-18.231,5.717-22.716,13.722
		L21.186,32.744z"/>
	<path fill="#FFFFFF" d="M39.133,69.872v-5.504c-6.965-0.229-13.083-3.79-16.808-9.147l-4.785,2.76
		C22.231,64.979,30.13,69.638,39.133,69.872"/>
	<path fill="#FFFFFF" d="M57.336,55.224c-3.729,5.354-9.848,8.916-16.812,9.144v5.504c9.005-0.237,16.902-4.89,21.593-11.894
		L57.336,55.224z"/>
	<path fill="#FFFFFF" d="M13.013,43.067c0,5.024,1.379,9.719,3.782,13.732l4.766-2.744c-1.933-3.212-3.044-6.968-3.044-10.988
		c0-3.251,0.736-6.326,2.036-9.086l-4.782-2.754C14.01,34.797,13.013,38.813,13.013,43.067"/>
	<path fill="#FFFFFF" d="M63.235,29.992c-1.555-2.781-3.609-5.252-6.015-7.303l-3.114,4.574c1.738,1.571,3.217,3.417,4.362,5.481
		L63.235,29.992z"/>
	<path fill="#FFFFFF" d="M49.842,18.211c-2.89-1.171-6.024-1.854-9.318-1.941v5.507c2.141,0.066,4.191,0.459,6.132,1.111
		L49.842,18.211z"/>
	<path fill="#FFFFFF" d="M42.328,36.77c1.726,1.171,4.772-0.386,6.928-3.558l10.161-14.922l1.113,0.76
		c0.849,0.575,2.006,0.357,2.583-0.499c0.586-0.843,0.36-1.999-0.488-2.582l-1.623-1.103l5.447-8.01
		c0.963-1.418,0.599-3.354-0.821-4.32c-1.416-0.961-3.354-0.594-4.315,0.825l-5.441,8.006l-1.639-1.107
		c-0.845-0.581-2.001-0.36-2.578,0.488c-0.589,0.854-0.363,2.012,0.485,2.59l1.116,0.753L43.093,29.022
		C40.939,32.192,40.603,35.598,42.328,36.77 M54.277,14.794l4.115,2.795L48.224,32.518c-1.854,2.726-4.227,3.892-5.199,3.23
		c-0.963-0.664-0.761-3.307,1.09-6.024L54.277,14.794z"/>
	<path fill="#FFFFFF" d="M66.645,43.067c0-4.254-0.99-8.27-2.759-11.841l-4.779,2.754c1.305,2.76,2.033,5.835,2.033,9.086
		c0,4.021-1.113,7.776-3.042,10.988l4.764,2.744C65.263,52.786,66.645,48.091,66.645,43.067"/>
	<path fill="#FFFFFF" d="M21.186,32.744c3.535-6.363,10.215-10.723,17.947-10.967V16.27c-9.77,0.247-18.231,5.717-22.716,13.722
		L21.186,32.744z"/>
	<path fill="#FFFFFF" d="M39.133,69.872v-5.504c-6.965-0.229-13.083-3.79-16.808-9.147l-4.785,2.76
		C22.231,64.979,30.13,69.638,39.133,69.872"/>
	<path fill="#FFFFFF" d="M57.336,55.224c-3.729,5.354-9.848,8.916-16.812,9.144v5.504c9.005-0.237,16.902-4.89,21.593-11.894
		L57.336,55.224z"/>
	<path fill="#FFFFFF" d="M13.013,43.067c0,5.024,1.379,9.719,3.782,13.732l4.766-2.744c-1.933-3.212-3.044-6.968-3.044-10.988
		c0-3.251,0.736-6.326,2.036-9.086l-4.782-2.754C14.01,34.797,13.013,38.813,13.013,43.067"/>
	<path fill="#FFFFFF" d="M63.235,29.992c-1.555-2.781-3.609-5.252-6.015-7.303l-3.114,4.574c1.738,1.571,3.217,3.417,4.362,5.481
		L63.235,29.992z"/>
	<path fill="#FFFFFF" d="M49.842,18.211c-2.89-1.171-6.024-1.854-9.318-1.941v5.507c2.141,0.066,4.191,0.459,6.132,1.111
		L49.842,18.211z"/>
	<path fill="#FFFFFF" d="M42.328,36.77c1.726,1.171,4.772-0.386,6.928-3.558l10.161-14.922l1.113,0.76
		c0.849,0.575,2.006,0.357,2.583-0.499c0.586-0.843,0.36-1.999-0.488-2.582l-1.623-1.103l5.447-8.01
		c0.963-1.418,0.599-3.354-0.821-4.32c-1.416-0.961-3.354-0.594-4.315,0.825l-5.441,8.006l-1.639-1.107
		c-0.845-0.581-2.001-0.36-2.578,0.488c-0.589,0.854-0.363,2.012,0.485,2.59l1.116,0.753L43.093,29.022
		C40.939,32.192,40.603,35.598,42.328,36.77 M54.277,14.794l4.115,2.795L48.224,32.518c-1.854,2.726-4.227,3.892-5.199,3.23
		c-0.963-0.664-0.761-3.307,1.09-6.024L54.277,14.794z"/>
</g>
<g>
	<path fill="#FFFFFF" d="M66.645,123.088c0-4.254-0.99-8.268-2.76-11.84l-4.779,2.754c1.305,2.76,2.033,5.836,2.033,9.086
		c0,4.023-1.113,7.777-3.041,10.988l4.764,2.746C65.262,132.811,66.645,128.113,66.645,123.088"/>
	<path fill="#FFFFFF" d="M21.186,112.766c3.535-6.361,10.215-10.723,17.947-10.967v-5.506c-9.77,0.246-18.231,5.717-22.716,13.721
		L21.186,112.766z"/>
	<path fill="#FFFFFF" d="M39.133,149.896v-5.506c-6.965-0.23-13.083-3.791-16.808-9.15l-4.785,2.764
		C22.231,145,30.13,149.66,39.133,149.896"/>
	<path fill="#FFFFFF" d="M57.336,135.246c-3.729,5.354-9.848,8.914-16.812,9.145v5.506c9.005-0.236,16.902-4.891,21.593-11.898
		L57.336,135.246z"/>
	<path fill="#FFFFFF" d="M13.013,123.088c0,5.025,1.379,9.723,3.782,13.734l4.766-2.746c-1.933-3.211-3.044-6.965-3.044-10.988
		c0-3.25,0.736-6.326,2.036-9.086l-4.782-2.754C14.011,114.82,13.013,118.834,13.013,123.088"/>
	<path fill="#FFFFFF" d="M66.645,123.088c0-4.254-0.99-8.268-2.76-11.84l-4.779,2.754c1.305,2.76,2.033,5.836,2.033,9.086
		c0,4.023-1.113,7.777-3.041,10.988l4.764,2.746C65.262,132.811,66.645,128.113,66.645,123.088"/>
	<path fill="#FFFFFF" d="M21.186,112.766c3.535-6.361,10.215-10.723,17.947-10.967v-5.506c-9.77,0.246-18.231,5.717-22.716,13.721
		L21.186,112.766z"/>
	<path fill="#FFFFFF" d="M39.133,149.896v-5.506c-6.965-0.23-13.083-3.791-16.808-9.15l-4.785,2.764
		C22.231,145,30.13,149.66,39.133,149.896"/>
	<path fill="#FFFFFF" d="M57.336,135.246c-3.729,5.354-9.848,8.914-16.812,9.145v5.506c9.005-0.236,16.902-4.891,21.593-11.898
		L57.336,135.246z"/>
	<path fill="#FFFFFF" d="M13.013,123.088c0,5.025,1.379,9.723,3.782,13.734l4.766-2.746c-1.933-3.211-3.044-6.965-3.044-10.988
		c0-3.25,0.736-6.326,2.036-9.086l-4.782-2.754C14.011,114.82,13.013,118.834,13.013,123.088"/>
	<path fill="#FFFFFF" d="M66.645,123.088c0-4.254-0.99-8.268-2.76-11.84l-4.779,2.754c1.305,2.76,2.033,5.836,2.033,9.086
		c0,4.023-1.113,7.777-3.041,10.988l4.764,2.746C65.262,132.811,66.645,128.113,66.645,123.088"/>
	<path fill="#FFFFFF" d="M21.186,112.766c3.535-6.361,10.215-10.723,17.947-10.967v-5.506c-9.77,0.246-18.231,5.717-22.716,13.721
		L21.186,112.766z"/>
	<path fill="#FFFFFF" d="M39.133,149.896v-5.506c-6.965-0.23-13.083-3.791-16.808-9.15l-4.785,2.764
		C22.231,145,30.13,149.66,39.133,149.896"/>
	<path fill="#FFFFFF" d="M57.336,135.246c-3.729,5.354-9.848,8.914-16.812,9.145v5.506c9.005-0.236,16.902-4.891,21.593-11.898
		L57.336,135.246z"/>
	<path fill="#FFFFFF" d="M13.013,123.088c0,5.025,1.379,9.723,3.782,13.734l4.766-2.746c-1.933-3.211-3.044-6.965-3.044-10.988
		c0-3.25,0.736-6.326,2.036-9.086l-4.782-2.754C14.011,114.82,13.013,118.834,13.013,123.088"/>
	<path fill="#FFFFFF" d="M66.645,123.088c0-4.254-0.99-8.268-2.76-11.84l-4.779,2.754c1.305,2.76,2.033,5.836,2.033,9.086
		c0,4.023-1.113,7.777-3.041,10.988l4.764,2.746C65.262,132.811,66.645,128.113,66.645,123.088"/>
	<path fill="#FFFFFF" d="M21.186,112.766c3.535-6.361,10.215-10.723,17.947-10.967v-5.506c-9.77,0.246-18.231,5.717-22.716,13.721
		L21.186,112.766z"/>
	<path fill="#FFFFFF" d="M39.133,149.896v-5.506c-6.965-0.23-13.083-3.791-16.808-9.15l-4.785,2.764
		C22.231,145,30.13,149.66,39.133,149.896"/>
	<path fill="#FFFFFF" d="M57.336,135.246c-3.729,5.354-9.848,8.914-16.812,9.145v5.506c9.005-0.236,16.902-4.891,21.593-11.898
		L57.336,135.246z"/>
	<path fill="#FFFFFF" d="M13.013,123.088c0,5.025,1.379,9.723,3.782,13.734l4.766-2.746c-1.933-3.211-3.044-6.965-3.044-10.988
		c0-3.25,0.736-6.326,2.036-9.086l-4.782-2.754C14.011,114.82,13.013,118.834,13.013,123.088"/>
	<path fill="none" stroke="#FFFFFF" stroke-width="0.4" stroke-linecap="round" stroke-linejoin="round" stroke-miterlimit="10" d="
		M41.742,96.25v5.504c6.963,0.229,13.084,3.789,16.807,9.148l4.785-2.762C58.645,101.143,50.744,96.484,41.742,96.25"/>
	<circle fill="none" stroke="#FFFFFF" stroke-miterlimit="10" cx="40.866" cy="122.693" r="13.669"/>
	<circle fill="none" stroke="#FFFFFF" stroke-miterlimit="10" cx="40.865" cy="122.693" r="7.059"/>
</g>
</svg>
