<?xml version="1.0" encoding="utf-8"?>
<!-- Generator: Adobe Illustrator 16.0.3, SVG Export Plug-In . SVG Version: 6.00 Build 0)  -->
<!DOCTYPE svg PUBLIC "-//W3C//DTD SVG 1.1//EN" "http://www.w3.org/Graphics/SVG/1.1/DTD/svg11.dtd">
<svg version="1.1" id="Шар_1" xmlns="http://www.w3.org/2000/svg" xmlns:xlink="http://www.w3.org/1999/xlink" x="0px" y="0px"
	 width="80px" height="160px" viewBox="0 0 80 160" enable-background="new 0 0 80 160" xml:space="preserve">
<g>
	<path fill="#FFFFFF" d="M67.009,51.538V24.465h-54.06v27.012h9.271c0.928,2.025,1.794,3.916,2.705,5.901
		c-0.285,0.024-0.599,0.066-0.915,0.066c-4.519,0.006-9.038,0.008-13.553,0.003c-2.39-0.005-3.392-1.003-3.392-3.341V9.827
		c0-2.25,1.026-3.273,3.314-3.286c2.4-0.01,4.799-0.002,7.253-0.002v5.86h-4.769v4.566v4.472h54.11v-9.009
		c-2.448,0-4.853-0.022-7.251,0.034c-0.271,0.008-0.65,0.439-0.767,0.75c-0.573,1.556-1.834,2.376-3.387,2.112
		c-1.349-0.224-2.322-1.412-2.342-2.961c-0.024-2.453-0.032-4.903,0.008-7.36c0.024-1.75,1.266-3.001,2.885-3.001
		c1.613,0,2.808,1.233,2.908,2.997c0.029,0.463,0.044,0.928,0.068,1.541h1.6c3.053,0,6.107-0.018,9.163,0.007
		c1.923,0.021,3.024,1.147,3.063,3.063c0.021,0.906,0.008,1.808,0.008,2.712c0,13.812,0,27.624-0.003,41.437
		c0,2.76-0.945,3.69-3.731,3.69c-4.307,0.003-8.605,0-12.911,0H54.98c0.915-1.985,1.784-3.873,2.72-5.91H67.009z"/>
	<path fill="#FFFFFF" d="M54.896,46.976c0.038,8.23-6.594,14.941-14.849,15.023c-8.163,0.088-14.94-6.632-15.001-14.864
		c-0.057-8.282,6.547-15.001,14.783-15.038C48.198,32.058,54.859,38.635,54.896,46.976 M52.308,47.011
		c-0.008-6.899-5.48-12.359-12.371-12.346c-6.883,0.01-12.308,5.493-12.292,12.418c0.012,6.799,5.485,12.283,12.298,12.324
		C46.746,59.444,52.313,53.863,52.308,47.011"/>
	<path fill="#FFFFFF" d="M49.972,12.425h-3.523h-3.297c-0.337,0.688-0.546,1.359-0.95,1.881c-0.788,1.04-1.933,1.299-3.128,0.924
		c-1.266-0.396-2.003-1.368-2.035-2.698c-0.051-2.539-0.048-5.074-0.003-7.615c0.035-1.599,1.366-2.882,2.884-2.917
		c1.514-0.028,2.858,1.225,2.984,2.819c0.04,0.507,0.008,1.024,0.008,1.72h3.534h3.526V12.425z"/>
	<path fill="#FFFFFF" d="M26.7,6.522h7.101v5.84h-6.923c-0.398,1.727-1.183,2.967-3.058,2.995c-1.497,0.022-2.806-1.065-2.85-2.562
		c-0.084-2.705-0.084-5.411-0.015-8.119c0.044-1.553,1.404-2.711,2.921-2.675c1.471,0.036,2.685,1.168,2.816,2.667
		C26.739,5.217,26.7,5.771,26.7,6.522"/>
	<path fill="#FFFFFF" d="M39.15,48.015c0,0.733,0.591,1.327,1.323,1.327h7.336c0.729,0,1.325-0.594,1.325-1.327
		c0-0.732-0.597-1.325-1.325-1.325h-7.336C39.741,46.689,39.15,47.283,39.15,48.015"/>
	<path fill="#FFFFFF" d="M39.716,49.341c0.732,0,1.326-0.594,1.326-1.329v-7.329c0-0.733-0.594-1.328-1.326-1.328
		c-0.733,0-1.325,0.594-1.325,1.328v7.329C38.391,48.748,38.982,49.341,39.716,49.341"/>
</g>
<g>
	<path fill="#FFFFFF" d="M52.232,122.058c11.161-9.317,18.023-23.329,18.023-38.337c0-0.912-0.809-1.718-1.718-1.721
		c-15.009,0.003-29.013,6.851-38.34,18.023c-5.386,0.2-10.416,2.375-14.249,6.206c-3.869,3.872-6.076,9.025-6.205,14.509
		c-0.035,1.344,1.952,2.701,3.204,0.909c0.654-0.932,1.248-1.877,2.008-2.638c1.895-1.896,4.267-3.123,6.85-3.577
		c0.082,0.266,0.222,0.526,0.432,0.735l13.851,13.852c0.209,0.21,0.469,0.35,0.736,0.431c-0.455,2.582-1.681,4.954-3.576,6.848
		c-0.761,0.761-1.718,1.323-2.64,2.011c-1.931,1.442-0.236,3.25,0.909,3.203c5.482-0.148,10.635-2.339,14.506-6.207
		C49.847,132.462,52.044,127.434,52.232,122.058L52.232,122.058z M66.771,85.472c-0.162,4.516-1.015,8.919-2.431,13.093
		L53.693,87.919C57.865,86.48,62.262,85.639,66.771,85.472L66.771,85.472z M14.292,115.045c0.875-2.375,2.266-4.533,4.102-6.37
		c2.476-2.477,5.566-4.138,8.93-4.838c-0.082,0.105-3.682,6.253-4.442,7.996C19.736,112.056,16.777,113.163,14.292,115.045
		L14.292,115.045z M37.725,126.77l-12.249-12.249c4.628-11.503,13.674-20.479,24.708-25.271l12.813,12.81
		C58.203,113.094,49.228,122.143,37.725,126.77L37.725,126.77z M40.426,129.376c2.419-1.064,7.915-4.383,7.996-4.439
		c-0.689,3.353-2.351,6.434-4.84,8.929c-1.836,1.834-4.01,3.212-6.372,4.102C39.081,135.466,40.192,132.51,40.426,129.376
		L40.426,129.376z M40.426,129.376"/>
	<path fill="#FFFFFF" d="M22.204,120.202c-0.679-0.68-1.766-0.668-2.433,0l-6.111,6.11c-0.676,0.678-0.665,1.767,0,2.431
		c0.667,0.669,1.763,0.669,2.43,0.003l6.116-6.114C22.882,121.952,22.871,120.866,22.204,120.202L22.204,120.202z M22.204,120.202"
		/>
	<path fill="#FFFFFF" d="M27.124,125.121c-0.339-0.34-0.781-0.502-1.227-0.502h-0.023c-0.278,0-0.571,0.079-0.843,0.232
		c-0.127,0.081-0.258,0.164-0.375,0.281l-12.214,12.212c-0.093,0.095-0.177,0.201-0.247,0.317c-0.406,0.667-0.324,1.545,0.247,2.116
		c0.576,0.572,1.45,0.653,2.117,0.246c0.117-0.07,0.222-0.151,0.315-0.246l12.239-12.239c0.117-0.115,0.21-0.231,0.28-0.371
		C27.778,126.521,27.685,125.682,27.124,125.121L27.124,125.121z M27.124,125.121"/>
	<path fill="#FFFFFF" d="M32.045,130.042c-0.678-0.677-1.765-0.666-2.432,0l-6.114,6.114c-0.676,0.676-0.664,1.763,0,2.43
		c0.667,0.668,1.766,0.668,2.433,0l6.113-6.114C32.733,131.808,32.722,130.72,32.045,130.042L32.045,130.042z M32.045,130.042"/>
</g>
</svg>
