<?xml version="1.0" encoding="utf-8"?>
<!-- Generator: Adobe Illustrator 16.0.3, SVG Export Plug-In . SVG Version: 6.00 Build 0)  -->
<!DOCTYPE svg PUBLIC "-//W3C//DTD SVG 1.1//EN" "http://www.w3.org/Graphics/SVG/1.1/DTD/svg11.dtd">
<svg version="1.1" id="Шар_1" xmlns="http://www.w3.org/2000/svg" xmlns:xlink="http://www.w3.org/1999/xlink" x="0px" y="0px"
	 width="80px" height="160px" viewBox="0 0 80 160" enable-background="new 0 0 80 160" xml:space="preserve">
<g>
	<path fill="#FFFFFF" d="M69.168,2H10.827C7.612,2,5,4.602,5,7.803v37.865c0,3.203,2.611,5.803,5.827,5.803h18.799l-3.568,7.837
		c-0.368,0.807-0.298,1.752,0.184,2.493C26.724,62.549,27.556,63,28.448,63h23.101h0.005c1.447,0,2.623-1.167,2.623-2.611
		c0-0.434-0.107-0.845-0.294-1.204l-3.513-7.714h18.798c3.216,0,5.832-2.6,5.832-5.803V7.803C75,4.602,72.384,2,69.168,2
		 M69.749,45.668c0,0.315-0.26,0.581-0.581,0.581H10.827c-0.318,0-0.579-0.266-0.579-0.581V7.803c0-0.313,0.26-0.573,0.579-0.573
		h58.341c0.321,0,0.581,0.26,0.581,0.573V45.668z"/>
	<path fill="#FFFFFF" d="M48.085,14.455c-0.188-0.186-0.513-0.158-0.731,0.059l-2.847,2.834c-0.217,0.22-0.244,0.546-0.062,0.729
		l4.043,4.025c0.096,0.094,0.222,0.131,0.354,0.122c0.13-0.013,0.269-0.075,0.377-0.183l2.852-2.836
		c0.212-0.218,0.242-0.54,0.057-0.723L48.085,14.455z"/>
	<path fill="#FFFFFF" d="M30.606,32.078c-0.119-0.117-0.305-0.152-0.486-0.091c-0.184,0.063-0.333,0.212-0.395,0.399l-1.945,5.741
		c-0.063,0.177-0.027,0.361,0.088,0.476c0.092,0.091,0.219,0.134,0.356,0.123c0.039-0.004,0.087-0.011,0.131-0.026l5.762-1.94
		c0.184-0.058,0.336-0.211,0.397-0.39c0.065-0.184,0.03-0.368-0.092-0.489L30.606,32.078z"/>
	<path fill="#FFFFFF" d="M45.162,29.402c0.255-0.114,0.438-0.34,0.502-0.613c0.06-0.269-0.011-0.554-0.188-0.767
		c-0.336-0.396-0.689-0.802-1.051-1.208l3.164-3.147c0.105-0.107,0.17-0.242,0.18-0.38c0.015-0.132-0.032-0.26-0.123-0.352
		l-4.04-4.025c-0.186-0.181-0.511-0.154-0.729,0.062l-3.086,3.073c-2.066-1.954-4.146-3.696-5.977-5.008
		c-1.287-0.923-3.65-2.472-4.962-2.493c-0.238-0.004-0.469,0.089-0.643,0.257c-0.17,0.169-0.265,0.399-0.264,0.64
		c0.01,0.891,0.793,2.499,2.211,4.523c1.352,1.935,3.208,4.151,5.328,6.372l-4.025,4.008c-0.219,0.218-0.247,0.544-0.062,0.728
		l4.045,4.027c0.091,0.095,0.216,0.128,0.35,0.119c0.132-0.009,0.269-0.071,0.378-0.178l4.102-4.086
		c0.357,0.313,0.712,0.62,1.066,0.917c0.16,0.136,0.364,0.208,0.573,0.208c0.05,0,0.097-0.003,0.142-0.009
		c0.261-0.045,0.488-0.193,0.62-0.415c0.242-0.392,0.556-0.782,0.93-1.156C44.074,30.026,44.602,29.66,45.162,29.402"/>
	<path fill="#FFFFFF" d="M47.398,30.147c-1.036,0-2.031,0.442-2.868,1.275c-1.005,1.003-1.442,2.053-1.268,3.039
		c0.173,0.978,0.95,1.854,2.139,2.397c1.015,0.472,1.947,0.62,2.768,0.747c0.861,0.14,1.679,0.269,2.399,0.755
		c0.152,0.104,0.326,0.158,0.502,0.158c0.125,0,0.245-0.029,0.364-0.079c0.281-0.125,0.48-0.388,0.521-0.691
		c0.311-2.309-0.133-4.382-1.249-5.833C49.844,30.79,48.638,30.147,47.398,30.147"/>
</g>
<g>
	<path fill="#FFFFFF" d="M69.171,82H10.827C7.611,82,5,84.604,5,87.805v37.862c0,3.205,2.611,5.805,5.827,5.805h18.799l-3.568,7.836
		c-0.368,0.806-0.298,1.751,0.184,2.494c0.482,0.748,1.314,1.198,2.206,1.198h23.104h0.001c1.45,0,2.625-1.168,2.625-2.612
		c0-0.435-0.107-0.846-0.294-1.204l-3.514-7.712h18.801c3.215,0,5.829-2.6,5.829-5.805V87.805C75,84.604,72.386,82,69.171,82
		 M69.753,125.667c0,0.317-0.265,0.582-0.582,0.582H10.827c-0.318,0-0.58-0.265-0.58-0.582V87.805c0-0.313,0.261-0.572,0.58-0.572
		h58.344c0.317,0,0.582,0.259,0.582,0.572V125.667z"/>
	<g>
		<path fill="#FFFFFF" d="M32.385,116.189c1.691-0.086,2.758-0.613,3.175-1.571c0.179-0.408,0.196-0.841,0.137-1.263
			c0.389,0.196,0.887,0.379,1.399,0.379c0.104,0,0.202-0.009,0.3-0.022c0.521-0.077,0.965-0.363,1.273-0.825
			c0.146-0.212,0.08-0.5-0.146-0.634c-0.219-0.134-0.521-0.077-0.663,0.139c-0.164,0.243-0.354,0.371-0.605,0.413
			c-0.62,0.092-1.427-0.423-1.692-0.629c-0.083-0.068-0.183-0.097-0.286-0.097c-0.183-0.345-0.385-0.639-0.548-0.811
			c-1.913-2.051-1.998-3.731-1.998-3.761c-0.004-0.25-0.21-0.414-0.487-0.449c-0.268,0.005-0.48,0.217-0.475,0.475
			c0.004,0.078,0.066,2.018,2.24,4.347c0.403,0.435,1.015,1.58,0.663,2.387c-0.324,0.746-1.451,0.96-2.335,1.005
			c-0.264,0.015-0.47,0.229-0.456,0.48c0.016,0.252,0.226,0.438,0.479,0.438H32.385z M32.385,116.189"/>
		<path fill="#FFFFFF" d="M32.262,106.475c0-0.008,0.649-0.097,1.326,1.437c0.047,0.111,0.493,1.095,1.414,1.355
			c0.123,0.031,0.269,0.057,0.438,0.057c0.305,0,0.681-0.085,1.094-0.355c0.222-0.143,0.274-0.435,0.124-0.646
			c-0.152-0.211-0.452-0.261-0.668-0.115c-0.267,0.175-0.502,0.237-0.709,0.175c-0.409-0.111-0.714-0.633-0.802-0.827
			c-1.03-2.348-2.345-2.01-2.492-1.964c-0.248,0.081-0.399,0.347-0.314,0.589C31.751,106.414,32.008,106.553,32.262,106.475
			L32.262,106.475z M32.262,106.475"/>
		<path fill="#FFFFFF" d="M36.814,103.826c-0.098,0.234,0.02,0.506,0.264,0.598l0.183,0.034c0.188,0,0.368-0.104,0.448-0.283
			c1.38-3.198,0.184-7.67,0.131-7.86c-0.065-0.246-0.328-0.397-0.586-0.325c-0.26,0.064-0.41,0.316-0.343,0.56
			C36.917,96.597,38.078,100.912,36.814,103.826L36.814,103.826z M36.814,103.826"/>
		<path fill="#FFFFFF" d="M36.335,115.913c-0.262-0.038-0.506,0.133-0.549,0.384c-0.042,0.251,0.136,0.483,0.399,0.527
			c0.019,0,1.814,0.293,2.283,2.004c0.057,0.208,0.253,0.348,0.466,0.348l0.121-0.021c0.258-0.063,0.407-0.313,0.343-0.56
			C38.769,116.305,36.435,115.93,36.335,115.913L36.335,115.913z M36.335,115.913"/>
		<path fill="#FFFFFF" d="M37.158,119.97c-1.222,0.266-3.129-1.955-4.05-3.416c-0.14-0.214-0.436-0.282-0.661-0.153
			c-0.228,0.133-0.302,0.414-0.166,0.632c0.264,0.421,2.519,3.875,4.679,3.875c0.137,0,0.273-0.011,0.403-0.04
			c0.26-0.057,0.424-0.3,0.368-0.545C37.674,120.068,37.415,119.918,37.158,119.97L37.158,119.97z M37.158,119.97"/>
		<path fill="#FFFFFF" d="M32.142,114.162c0.234,0,0.439-0.165,0.473-0.398c0.034-0.254-0.15-0.481-0.414-0.52
			c-1.047-0.13-1.573-1.914-1.696-2.65c0.216-3.225-0.981-4.415-1.038-4.463c-0.183-0.177-0.479-0.181-0.667-0.006
			c-0.188,0.176-0.197,0.467-0.019,0.646c0.011,0.016,0.96,1.017,0.761,3.808l0.004,0.1c0.02,0.129,0.522,3.223,2.527,3.479
			L32.142,114.162z M32.142,114.162"/>
		<path fill="#FFFFFF" d="M34.259,105.95c-0.107,0.234,0.005,0.503,0.246,0.607l0.195,0.04c0.183,0,0.357-0.104,0.437-0.274
			c0.504-1.082-0.022-2.978-0.083-3.188l-0.052-0.112c-1.254-2.03,0.442-4.079,0.518-4.169c0.092-0.109,0.118-0.252,0.088-0.386
			c0.165,0.182,0.338,0.361,0.547,0.546c0.092,0.081,0.209,0.123,0.328,0.123c0.132,0,0.258-0.05,0.352-0.148
			c0.183-0.185,0.17-0.478-0.024-0.653c-0.874-0.776-1.286-1.501-1.203-2.103c0.107-0.758,0.958-1.189,0.983-1.198
			c0.234-0.113,0.334-0.391,0.211-0.614c-0.118-0.232-0.404-0.324-0.644-0.207c-0.052,0.028-1.316,0.644-1.5,1.879
			c-0.097,0.664,0.138,1.356,0.687,2.068c-0.192-0.091-0.427-0.049-0.572,0.115c-0.091,0.104-2.167,2.59-0.631,5.16
			C34.278,103.946,34.554,105.31,34.259,105.95L34.259,105.95z M34.259,105.95"/>
		<g>
			<path fill="#FFFFFF" d="M39.021,105.803c-0.163,0.582-1.511,0.603-2.137,0.519c-0.258-0.03-0.507,0.134-0.545,0.39
				c-0.037,0.25,0.147,0.481,0.409,0.52c0.09,0.014,0.381,0.05,0.762,0.05c0.859,0,2.147-0.184,2.442-1.237
				c0.071-0.247-0.08-0.499-0.337-0.564C39.362,105.415,39.098,105.558,39.021,105.803L39.021,105.803z M39.021,105.803"/>
			<path fill="#FFFFFF" d="M54.021,106.934c0.727-4.248-1.1-5.672-1.738-6.027c0.25-2.778-1.39-3.968-1.92-4.272
				c-0.047-0.513-0.197-0.991-0.467-1.433c-1.027-1.686-3.325-2.231-3.653-2.3c-0.757-0.758-1.564-1.144-2.415-1.144h-0.042
				c-1.461,0.022-2.579,1.178-3.103,1.85c-0.528-0.672-1.646-1.827-3.107-1.85h-0.042c-0.851,0-1.658,0.386-2.415,1.144
				c-0.327,0.068-2.624,0.614-3.654,2.3c-0.267,0.441-0.421,0.92-0.466,1.433c-0.529,0.305-2.169,1.494-1.92,4.272
				c-0.635,0.355-2.461,1.776-1.742,6.021c-0.179,0.319-1.299,2.438-0.7,4.468c0.14,0.473,0.371,0.891,0.666,1.27
				c-0.057,0.529-0.126,3.044,3.095,5.35c1.231,0.88,2.392,2.163,3.444,3.816l0.103,0.119c0.066,0.053,1.434,1.108,3.072,1.108
				c0.306,0,0.625-0.045,0.943-0.133c1.139-0.312,2.045-1.195,2.716-2.62c0.667,1.425,1.579,2.309,2.716,2.62
				c0.318,0.088,0.638,0.133,0.943,0.133c1.64-0.004,3.005-1.056,3.072-1.108l0.102-0.119c1.055-1.653,2.215-2.934,3.445-3.816
				c3.218-2.304,3.146-4.815,3.095-5.35c0.297-0.379,0.53-0.797,0.667-1.27C55.323,109.372,54.204,107.252,54.021,106.934
				L54.021,106.934z M40.12,119.171c-0.577,1.623-1.39,2.59-2.412,2.871c-1.373,0.389-2.786-0.548-3.091-0.763
				c-1.104-1.714-2.332-3.063-3.635-4.006c-1.94-1.384-2.514-2.809-2.674-3.691c0.156,0.104,0.306,0.218,0.481,0.306l0.234,0.058
				c0.164,0,0.328-0.084,0.418-0.233c0.13-0.221,0.048-0.504-0.184-0.627c-2.362-1.265-1.94-3.568-1.46-4.846l0.22,0.054
				l0.109-0.003c0.258-0.061,0.421-0.31,0.361-0.556c-0.907-3.759,0.135-5.274,0.76-5.815c0.117,0.523,0.292,1.091,0.549,1.715
				c0.076,0.183,0.259,0.296,0.447,0.296l0.177-0.039c0.25-0.09,0.368-0.359,0.275-0.595c-1.41-3.399-0.336-4.972,0.375-5.583
				c0.042,0.223,0.089,0.443,0.165,0.669c0.064,0.195,0.253,0.324,0.46,0.324l0.145-0.026c0.254-0.072,0.39-0.337,0.31-0.579
				c-0.313-0.933-0.268-1.755,0.146-2.436c0.427-0.707,1.173-1.171,1.827-1.462c-0.042,0.185,0.032,0.381,0.206,0.485
				c0.222,0.134,0.522,0.073,0.663-0.145c0.827-1.242,1.683-1.871,2.542-1.871h0.023c1.27,0.021,2.296,1.378,2.563,1.759V119.171z
				 M50.387,117.273c-1.313,0.942-2.537,2.292-3.643,4.006c-0.3,0.215-1.714,1.151-3.079,0.767c-1.031-0.285-1.845-1.247-2.425-2.87
				V94.438c0.384-0.565,1.409-1.739,2.56-1.759h0.027c0.86,0,1.715,0.632,2.542,1.869c0.141,0.219,0.44,0.28,0.66,0.144
				c0.176-0.105,0.251-0.298,0.213-0.482c0.648,0.29,1.396,0.755,1.822,1.457c0.414,0.688,0.461,1.505,0.146,2.439
				c-0.084,0.243,0.056,0.505,0.31,0.579l0.146,0.022c0.202,0,0.39-0.127,0.456-0.319c0.081-0.228,0.124-0.452,0.17-0.675
				c0.703,0.611,1.784,2.188,0.379,5.589c-0.098,0.231,0.02,0.505,0.268,0.593l0.179,0.035c0.194,0,0.371-0.113,0.447-0.29
				c0.257-0.624,0.433-1.195,0.55-1.718c0.625,0.544,1.667,2.059,0.76,5.814c-0.062,0.249,0.104,0.493,0.363,0.554l0.105,0.009
				l0.219-0.049c0.275,0.751,0.539,1.856,0.232,2.9c-0.238,0.813-0.806,1.463-1.685,1.938c-0.235,0.119-0.315,0.402-0.188,0.623
				c0.09,0.153,0.254,0.238,0.423,0.238l0.234-0.058c0.176-0.093,0.32-0.203,0.475-0.305
				C52.893,114.468,52.321,115.891,50.387,117.273L50.387,117.273z M50.387,117.273"/>
		</g>
		<path fill="#FFFFFF" d="M44.774,95.034c0.013,0.006,0.866,0.433,0.979,1.188c0.096,0.607-0.323,1.336-1.196,2.112
			c-0.193,0.176-0.208,0.469-0.03,0.653c0.099,0.099,0.226,0.148,0.357,0.148c0.113,0,0.23-0.042,0.324-0.123
			c0.208-0.185,0.386-0.364,0.551-0.546c-0.033,0.134-0.011,0.276,0.09,0.386c0.019,0.024,1.774,2.123,0.511,4.169l-0.046,0.112
			c-0.061,0.211-0.588,2.106-0.089,3.188c0.079,0.17,0.258,0.274,0.44,0.274l0.193-0.04c0.244-0.104,0.353-0.379,0.244-0.607
			c-0.263-0.573-0.073-1.821,0.121-2.515c1.537-2.57-0.547-5.057-0.633-5.16c-0.143-0.164-0.377-0.203-0.573-0.115
			c0.553-0.712,0.788-1.398,0.689-2.068c-0.184-1.235-1.445-1.851-1.499-1.879c-0.239-0.116-0.525-0.025-0.646,0.207
			C44.443,94.644,44.542,94.922,44.774,95.034L44.774,95.034z M44.774,95.034"/>
		<path fill="#FFFFFF" d="M49.027,115.267c-0.883-0.045-2.01-0.254-2.334-1.004c-0.354-0.81,0.258-1.952,0.663-2.388
			c2.174-2.324,2.235-4.27,2.235-4.348c0.009-0.252-0.203-0.464-0.465-0.469c-0.273-0.011-0.485,0.193-0.491,0.446
			c0,0.018-0.083,1.707-2,3.758c-0.163,0.175-0.369,0.472-0.548,0.813c-0.099,0.003-0.202,0.031-0.293,0.1
			c-0.257,0.206-1.061,0.721-1.684,0.627c-0.25-0.04-0.442-0.174-0.607-0.416c-0.146-0.216-0.443-0.276-0.661-0.138
			c-0.227,0.138-0.292,0.419-0.147,0.638c0.311,0.462,0.751,0.748,1.273,0.822c0.099,0.017,0.196,0.021,0.296,0.021
			c0.519,0,1.012-0.178,1.399-0.374c-0.055,0.422-0.037,0.853,0.142,1.256c0.419,0.965,1.484,1.49,3.175,1.575h0.024
			c0.253,0,0.463-0.19,0.479-0.441C49.497,115.495,49.291,115.28,49.027,115.267L49.027,115.267z M49.027,115.267"/>
		<path fill="#FFFFFF" d="M46.088,108.385c-0.211,0.053-0.443,0-0.711-0.174c-0.216-0.15-0.517-0.096-0.666,0.118
			c-0.149,0.206-0.099,0.496,0.124,0.639c0.411,0.271,0.787,0.355,1.094,0.355c0.168,0,0.313-0.019,0.436-0.057
			c0.916-0.254,1.367-1.244,1.413-1.353c0.655-1.49,1.274-1.438,1.321-1.438c0.248,0.067,0.502-0.067,0.582-0.306
			c0.084-0.234-0.052-0.495-0.3-0.579c-0.15-0.048-1.457-0.386-2.489,1.966C46.802,107.748,46.495,108.27,46.088,108.385
			L46.088,108.385z M46.088,108.385"/>
		<path fill="#FFFFFF" d="M44.102,104.458l0.188-0.027c0.245-0.099,0.36-0.37,0.257-0.604c-1.259-2.909-0.103-7.229-0.092-7.274
			c0.069-0.246-0.087-0.498-0.343-0.56c-0.259-0.072-0.519,0.08-0.584,0.329c-0.053,0.188-1.255,4.66,0.131,7.854
			C43.734,104.357,43.912,104.458,44.102,104.458L44.102,104.458z M44.102,104.458"/>
		<path fill="#FFFFFF" d="M45.181,116.824c0.263-0.044,0.441-0.276,0.399-0.527s-0.296-0.418-0.55-0.384
			c-0.098,0.017-2.433,0.392-3.061,2.687c-0.073,0.243,0.081,0.492,0.336,0.563l0.122,0.013c0.215,0,0.415-0.138,0.466-0.342
			C43.362,117.137,45.095,116.837,45.181,116.824L45.181,116.824z M45.181,116.824"/>
		<path fill="#FFFFFF" d="M48.915,116.4c-0.222-0.129-0.522-0.061-0.659,0.153c-0.926,1.461-2.834,3.69-4.052,3.416
			c-0.26-0.052-0.517,0.099-0.574,0.353c-0.057,0.245,0.104,0.492,0.365,0.545c0.134,0.029,0.266,0.04,0.401,0.04
			c2.165,0,4.418-3.454,4.684-3.875C49.216,116.814,49.146,116.533,48.915,116.4L48.915,116.4z M48.915,116.4"/>
		<path fill="#FFFFFF" d="M52.574,106.775c0.184-0.178,0.184-0.469-0.004-0.645c-0.185-0.181-0.489-0.181-0.677,0
			c-0.057,0.048-1.256,1.238-1.034,4.463c-0.122,0.693-0.652,2.521-1.699,2.65c-0.264,0.038-0.448,0.266-0.414,0.52
			c0.031,0.233,0.237,0.398,0.475,0.398l0.065-0.005c2.005-0.256,2.508-3.35,2.527-3.479l0.006-0.094
			C51.621,107.81,52.552,106.806,52.574,106.775L52.574,106.775z M52.574,106.775"/>
		<path fill="#FFFFFF" d="M44.618,107.23c0.257-0.038,0.444-0.27,0.41-0.52c-0.045-0.256-0.294-0.426-0.547-0.39
			c-0.408,0.057-1.956,0.126-2.143-0.519c-0.07-0.25-0.334-0.388-0.591-0.324c-0.26,0.065-0.409,0.317-0.34,0.564
			c0.301,1.054,1.588,1.237,2.444,1.237C44.232,107.28,44.526,107.244,44.618,107.23L44.618,107.23z M44.618,107.23"/>
	</g>
	<g>
		<g>
			<path fill="#FFFFFF" d="M64.786,106.34h-3.752c-0.587,0-1.071,0.475-1.071,1.068c0,0.585,0.478,1.065,1.071,1.065h3.752
				c0.587,0,1.071-0.474,1.071-1.065C65.857,106.825,65.38,106.34,64.786,106.34"/>
			<path fill="#FFFFFF" d="M57.026,98.847c0.272,0,0.547-0.103,0.755-0.307l2.659-2.651c0.417-0.414,0.417-1.086,0-1.505
				c-0.423-0.419-1.096-0.419-1.517,0l-2.658,2.645c-0.422,0.42-0.422,1.091,0,1.512C56.479,98.744,56.753,98.847,57.026,98.847"/>
			<path fill="#FFFFFF" d="M57.781,116.286c-0.42-0.422-1.094-0.422-1.516,0c-0.422,0.419-0.422,1.087,0,1.508l2.658,2.646
				c0.205,0.203,0.482,0.308,0.756,0.308c0.27,0,0.544-0.104,0.75-0.308c0.424-0.417,0.424-1.09,0-1.508L57.781,116.286z"/>
		</g>
		<g>
			<path fill="#FFFFFF" d="M16.573,108.477h3.751c0.586,0,1.07-0.475,1.07-1.068c0-0.583-0.475-1.066-1.07-1.066h-3.751
				c-0.586,0-1.071,0.477-1.071,1.066C15.502,107.993,15.978,108.477,16.573,108.477"/>
			<path fill="#FFFFFF" d="M24.332,115.971c-0.271,0-0.547,0.104-0.754,0.309l-2.658,2.648c-0.419,0.415-0.419,1.089,0,1.506
				c0.421,0.419,1.095,0.419,1.516,0l2.657-2.644c0.422-0.419,0.422-1.092,0-1.511C24.877,116.075,24.607,115.971,24.332,115.971"/>
			<path fill="#FFFFFF" d="M23.577,98.532c0.419,0.42,1.093,0.42,1.515,0c0.422-0.421,0.422-1.09,0-1.511l-2.657-2.646
				c-0.207-0.202-0.484-0.309-0.755-0.309c-0.268,0-0.545,0.106-0.752,0.309c-0.421,0.42-0.421,1.091,0,1.51L23.577,98.532z"/>
		</g>
	</g>
</g>
</svg>
