<?xml version="1.0" encoding="utf-8"?>
<!-- Generator: Adobe Illustrator 16.0.3, SVG Export Plug-In . SVG Version: 6.00 Build 0)  -->
<!DOCTYPE svg PUBLIC "-//W3C//DTD SVG 1.1//EN" "http://www.w3.org/Graphics/SVG/1.1/DTD/svg11.dtd">
<svg version="1.1" id="Шар_1" xmlns="http://www.w3.org/2000/svg" xmlns:xlink="http://www.w3.org/1999/xlink" x="0px" y="0px"
	 width="80px" height="160px" viewBox="0 0 80 160" enable-background="new 0 0 80 160" xml:space="preserve">
<path fill="#FFFFFF" d="M65.372,7.361c-0.018,0.088-0.038,0.179-0.04,0.268l-0.004,13.548c0,0.188-0.01,0.375-0.016,0.515
	l-0.034,0.816H47.657l6.231-6.224c-7.52-5.189-20.126-6.167-29.626,2.204c-9.152,8.058-10.875,21.716-4.213,31.775
	c4.271,6.455,10.315,10.133,17.967,10.93c7.48,0.788,14.174-1.567,19.892-6.988l0.603-0.569l3.509,3.509l0.381,0.486l-0.347,0.745
	l-0.333,0.347l-0.171,0.165c-4.293,4.049-9.285,6.662-14.849,7.759c-8.41,1.661-16.269,0.078-23.368-4.71
	c-0.708-0.478-1.384-0.998-2.038-1.504c-0.296-0.228-0.591-0.458-0.89-0.68l-2.704-2.695l-0.233-0.318
	c-0.057-0.088-0.114-0.179-0.179-0.259c-1.817-2.11-3.313-4.458-4.438-6.972C7.562,37.732,9.902,24.375,18.81,15.467
	c1.456-1.461,3.087-2.784,4.839-3.933c9.988-6.556,20.602-7.028,31.549-1.398c0.859,0.44,1.672,0.967,2.463,1.475
	c0.183,0.117,0.369,0.239,0.557,0.355l6.261-6.26l0.999,0.998L65.372,7.361z"/>
<path fill="#FFFFFF" d="M40.016,47.021c5.675,0,10.275-4.6,10.275-10.275S45.69,26.47,40.016,26.47
	c-5.675,0-10.275,4.6-10.275,10.275S34.34,47.021,40.016,47.021"/>
<g>
	<path fill="#FFFFFF" d="M44.821,155.593c-0.054-0.07-0.104-0.15-0.167-0.213l-9.846-9.304c-0.137-0.13-0.268-0.267-0.364-0.369
		l-0.569-0.583l12.098-12.809l0.247,8.803c8.935-1.902,18.303-10.395,18.741-23.047c0.427-12.187-8.319-22.82-20.208-24.885
		c-7.622-1.327-14.45,0.541-20.281,5.556c-5.709,4.896-8.595,11.379-8.579,19.261l-0.002,0.827l-4.959,0.139l-0.614-0.057
		l-0.304-0.762l-0.022-0.478l-0.003-0.239c0.003-5.902,1.533-11.327,4.554-16.121c4.566-7.256,11.115-11.88,19.471-13.754
		c0.834-0.187,1.678-0.321,2.494-0.449c0.369-0.059,0.739-0.115,1.105-0.179l3.816-0.115l0.393,0.049
		c0.103,0.02,0.208,0.04,0.31,0.048c2.781,0.128,5.517,0.652,8.114,1.561c12.193,4.242,20.297,15.115,20.655,27.704
		c0.063,2.064-0.096,4.157-0.464,6.222c-2.092,11.763-9.038,19.8-20.647,23.895c-0.911,0.318-1.852,0.551-2.765,0.775
		c-0.211,0.052-0.427,0.105-0.64,0.163l0.25,8.848l-1.41,0.04L44.821,155.593z"/>
	<path fill="#FFFFFF" d="M32.536,109.683c-3.896,4.124-3.71,10.629,0.416,14.523c4.125,3.896,10.627,3.714,14.526-0.415
		c3.896-4.122,3.71-10.628-0.415-14.523C42.937,105.37,36.435,105.555,32.536,109.683"/>
</g>
</svg>
